<svg xmlns="http://www.w3.org/2000/svg" width="512" height="512" viewBox="0 0 512 512">
  <rect width="512" height="512" fill="#ffffff"/>
  <line x1="75.3" y1="-1176.0" x2="1689.2" y2="84.9" stroke="#000000" stroke-width="1.77" stroke-linecap="round"/>
  <line x1="69.6" y1="-1168.6" x2="1683.4" y2="92.3" stroke="#000000" stroke-width="1.67" stroke-linecap="round"/>
  <line x1="64.1" y1="-1161.6" x2="1677.9" y2="99.2" stroke="#000000" stroke-width="2.03" stroke-linecap="round"/>
  <line x1="58.9" y1="-1155.0" x2="1672.7" y2="105.9" stroke="#000000" stroke-width="2.21" stroke-linecap="round"/>
  <line x1="53.4" y1="-1147.9" x2="1667.2" y2="113.0" stroke="#000000" stroke-width="2.12" stroke-linecap="round"/>
  <line x1="47.8" y1="-1140.8" x2="1661.6" y2="120.1" stroke="#000000" stroke-width="1.70" stroke-linecap="round"/>
  <line x1="42.0" y1="-1133.4" x2="1655.9" y2="127.5" stroke="#000000" stroke-width="2.60" stroke-linecap="round"/>
  <line x1="36.7" y1="-1126.5" x2="1650.5" y2="134.3" stroke="#000000" stroke-width="1.86" stroke-linecap="round"/>
  <line x1="30.8" y1="-1119.0" x2="1644.6" y2="141.9" stroke="#000000" stroke-width="2.75" stroke-linecap="round"/>
  <line x1="25.3" y1="-1111.9" x2="1639.1" y2="148.9" stroke="#000000" stroke-width="2.07" stroke-linecap="round"/>
  <line x1="19.5" y1="-1104.5" x2="1633.3" y2="156.4" stroke="#000000" stroke-width="1.64" stroke-linecap="round"/>
  <line x1="14.0" y1="-1097.5" x2="1627.9" y2="163.4" stroke="#000000" stroke-width="1.94" stroke-linecap="round"/>
  <line x1="9.0" y1="-1091.0" x2="1622.8" y2="169.8" stroke="#000000" stroke-width="1.73" stroke-linecap="round"/>
  <line x1="3.3" y1="-1083.8" x2="1617.1" y2="177.1" stroke="#000000" stroke-width="2.59" stroke-linecap="round"/>
  <line x1="-2.2" y1="-1076.8" x2="1611.7" y2="184.0" stroke="#000000" stroke-width="2.30" stroke-linecap="round"/>
  <line x1="-8.0" y1="-1069.3" x2="1605.8" y2="191.5" stroke="#000000" stroke-width="2.04" stroke-linecap="round"/>
  <line x1="-13.5" y1="-1062.3" x2="1600.4" y2="198.5" stroke="#000000" stroke-width="1.66" stroke-linecap="round"/>
  <line x1="-18.7" y1="-1055.7" x2="1595.2" y2="205.2" stroke="#000000" stroke-width="1.84" stroke-linecap="round"/>
  <line x1="-24.7" y1="-1048.0" x2="1589.2" y2="212.8" stroke="#000000" stroke-width="2.11" stroke-linecap="round"/>
  <line x1="-29.9" y1="-1041.3" x2="1583.9" y2="219.6" stroke="#000000" stroke-width="2.31" stroke-linecap="round"/>
  <line x1="-35.6" y1="-1034.0" x2="1578.3" y2="226.8" stroke="#000000" stroke-width="1.95" stroke-linecap="round"/>
  <line x1="-41.4" y1="-1026.7" x2="1572.5" y2="234.2" stroke="#000000" stroke-width="2.45" stroke-linecap="round"/>
  <line x1="-46.5" y1="-1020.0" x2="1567.3" y2="240.8" stroke="#000000" stroke-width="2.29" stroke-linecap="round"/>
  <line x1="-52.3" y1="-1012.7" x2="1561.6" y2="248.2" stroke="#000000" stroke-width="2.66" stroke-linecap="round"/>
  <line x1="-57.9" y1="-1005.4" x2="1555.9" y2="255.4" stroke="#000000" stroke-width="1.94" stroke-linecap="round"/>
  <line x1="-63.6" y1="-998.1" x2="1550.2" y2="262.7" stroke="#000000" stroke-width="1.73" stroke-linecap="round"/>
  <line x1="-68.8" y1="-991.5" x2="1545.0" y2="269.4" stroke="#000000" stroke-width="2.52" stroke-linecap="round"/>
  <line x1="-74.2" y1="-984.7" x2="1539.7" y2="276.2" stroke="#000000" stroke-width="2.19" stroke-linecap="round"/>
  <line x1="-79.6" y1="-977.7" x2="1534.2" y2="283.2" stroke="#000000" stroke-width="2.41" stroke-linecap="round"/>
  <line x1="-85.7" y1="-969.9" x2="1528.2" y2="290.9" stroke="#000000" stroke-width="2.29" stroke-linecap="round"/>
  <line x1="-91.3" y1="-962.8" x2="1522.6" y2="298.1" stroke="#000000" stroke-width="1.97" stroke-linecap="round"/>
  <line x1="-96.7" y1="-955.8" x2="1517.1" y2="305.1" stroke="#000000" stroke-width="2.32" stroke-linecap="round"/>
  <line x1="-102.2" y1="-948.8" x2="1511.7" y2="312.0" stroke="#000000" stroke-width="2.15" stroke-linecap="round"/>
  <line x1="-107.9" y1="-941.5" x2="1506.0" y2="319.4" stroke="#000000" stroke-width="2.75" stroke-linecap="round"/>
  <line x1="-113.2" y1="-934.7" x2="1500.7" y2="326.1" stroke="#000000" stroke-width="2.40" stroke-linecap="round"/>
  <line x1="-118.4" y1="-928.0" x2="1495.4" y2="332.9" stroke="#000000" stroke-width="2.45" stroke-linecap="round"/>
  <line x1="-124.4" y1="-920.4" x2="1489.5" y2="340.5" stroke="#000000" stroke-width="2.81" stroke-linecap="round"/>
  <line x1="-130.0" y1="-913.2" x2="1483.8" y2="347.7" stroke="#000000" stroke-width="1.93" stroke-linecap="round"/>
  <line x1="-135.3" y1="-906.4" x2="1478.6" y2="354.4" stroke="#000000" stroke-width="2.41" stroke-linecap="round"/>
  <line x1="-140.6" y1="-899.7" x2="1473.3" y2="361.2" stroke="#000000" stroke-width="2.15" stroke-linecap="round"/>
  <line x1="-146.2" y1="-892.4" x2="1467.6" y2="368.4" stroke="#000000" stroke-width="1.73" stroke-linecap="round"/>
  <line x1="-151.7" y1="-885.5" x2="1462.2" y2="375.4" stroke="#000000" stroke-width="2.53" stroke-linecap="round"/>
  <line x1="-157.3" y1="-878.3" x2="1456.6" y2="382.6" stroke="#000000" stroke-width="1.89" stroke-linecap="round"/>
  <line x1="-163.0" y1="-871.0" x2="1450.9" y2="389.9" stroke="#000000" stroke-width="2.66" stroke-linecap="round"/>
  <line x1="-168.3" y1="-864.2" x2="1445.5" y2="396.7" stroke="#000000" stroke-width="2.14" stroke-linecap="round"/>
  <line x1="-174.2" y1="-856.7" x2="1439.7" y2="404.2" stroke="#000000" stroke-width="2.67" stroke-linecap="round"/>
  <line x1="-179.9" y1="-849.3" x2="1434.0" y2="411.5" stroke="#000000" stroke-width="2.65" stroke-linecap="round"/>
  <line x1="-185.1" y1="-842.7" x2="1428.8" y2="418.2" stroke="#000000" stroke-width="2.10" stroke-linecap="round"/>
  <line x1="-190.7" y1="-835.5" x2="1423.2" y2="425.3" stroke="#000000" stroke-width="2.67" stroke-linecap="round"/>
  <line x1="-196.6" y1="-827.9" x2="1417.2" y2="432.9" stroke="#000000" stroke-width="1.77" stroke-linecap="round"/>
  <line x1="-201.6" y1="-821.5" x2="1412.2" y2="439.4" stroke="#000000" stroke-width="1.87" stroke-linecap="round"/>
  <line x1="-207.2" y1="-814.4" x2="1406.6" y2="446.5" stroke="#000000" stroke-width="2.18" stroke-linecap="round"/>
  <line x1="-213.0" y1="-807.0" x2="1400.9" y2="453.9" stroke="#000000" stroke-width="1.91" stroke-linecap="round"/>
  <line x1="-218.1" y1="-800.4" x2="1395.7" y2="460.5" stroke="#000000" stroke-width="2.10" stroke-linecap="round"/>
  <line x1="-223.9" y1="-793.0" x2="1389.9" y2="467.9" stroke="#000000" stroke-width="2.28" stroke-linecap="round"/>
  <line x1="-229.9" y1="-785.4" x2="1384.0" y2="475.5" stroke="#000000" stroke-width="2.43" stroke-linecap="round"/>
  <line x1="-235.1" y1="-778.7" x2="1378.7" y2="482.2" stroke="#000000" stroke-width="2.34" stroke-linecap="round"/>
  <line x1="-240.7" y1="-771.4" x2="1373.1" y2="489.4" stroke="#000000" stroke-width="1.65" stroke-linecap="round"/>
  <line x1="-246.4" y1="-764.2" x2="1367.4" y2="496.7" stroke="#000000" stroke-width="2.54" stroke-linecap="round"/>
  <line x1="-252.0" y1="-757.1" x2="1361.9" y2="503.8" stroke="#000000" stroke-width="2.57" stroke-linecap="round"/>
  <line x1="-257.2" y1="-750.4" x2="1356.7" y2="510.5" stroke="#000000" stroke-width="2.08" stroke-linecap="round"/>
  <line x1="-262.5" y1="-743.6" x2="1351.3" y2="517.3" stroke="#000000" stroke-width="2.37" stroke-linecap="round"/>
  <line x1="-268.0" y1="-736.5" x2="1345.8" y2="524.4" stroke="#000000" stroke-width="1.67" stroke-linecap="round"/>
  <line x1="-273.7" y1="-729.3" x2="1340.2" y2="531.6" stroke="#000000" stroke-width="1.78" stroke-linecap="round"/>
  <line x1="-279.3" y1="-722.1" x2="1334.5" y2="538.8" stroke="#000000" stroke-width="1.65" stroke-linecap="round"/>
  <line x1="-284.6" y1="-715.3" x2="1329.2" y2="545.6" stroke="#000000" stroke-width="1.77" stroke-linecap="round"/>
  <line x1="-290.2" y1="-708.1" x2="1323.6" y2="552.8" stroke="#000000" stroke-width="2.03" stroke-linecap="round"/>
  <line x1="-295.7" y1="-701.1" x2="1318.1" y2="559.8" stroke="#000000" stroke-width="2.66" stroke-linecap="round"/>
  <line x1="-301.7" y1="-693.5" x2="1312.2" y2="567.4" stroke="#000000" stroke-width="1.77" stroke-linecap="round"/>
  <line x1="-307.0" y1="-686.7" x2="1306.9" y2="574.2" stroke="#000000" stroke-width="2.01" stroke-linecap="round"/>
  <line x1="-312.6" y1="-679.5" x2="1301.3" y2="581.4" stroke="#000000" stroke-width="1.74" stroke-linecap="round"/>
  <line x1="-318.4" y1="-672.0" x2="1295.4" y2="588.9" stroke="#000000" stroke-width="2.81" stroke-linecap="round"/>
  <line x1="-323.7" y1="-665.2" x2="1290.1" y2="595.6" stroke="#000000" stroke-width="2.18" stroke-linecap="round"/>
  <line x1="-329.0" y1="-658.5" x2="1284.8" y2="602.4" stroke="#000000" stroke-width="1.71" stroke-linecap="round"/>
  <line x1="-334.7" y1="-651.2" x2="1279.1" y2="609.7" stroke="#000000" stroke-width="1.91" stroke-linecap="round"/>
  <line x1="-340.6" y1="-643.7" x2="1273.3" y2="617.2" stroke="#000000" stroke-width="1.78" stroke-linecap="round"/>
  <line x1="-345.6" y1="-637.3" x2="1268.3" y2="623.6" stroke="#000000" stroke-width="2.76" stroke-linecap="round"/>
  <line x1="-351.5" y1="-629.7" x2="1262.4" y2="631.1" stroke="#000000" stroke-width="1.76" stroke-linecap="round"/>
  <line x1="-357.0" y1="-622.6" x2="1256.8" y2="638.3" stroke="#000000" stroke-width="1.62" stroke-linecap="round"/>
  <line x1="-362.5" y1="-615.5" x2="1251.3" y2="645.3" stroke="#000000" stroke-width="2.79" stroke-linecap="round"/>
  <line x1="-368.3" y1="-608.2" x2="1245.5" y2="652.7" stroke="#000000" stroke-width="2.44" stroke-linecap="round"/>
  <line x1="-373.5" y1="-601.6" x2="1240.4" y2="659.3" stroke="#000000" stroke-width="2.04" stroke-linecap="round"/>
  <line x1="-378.9" y1="-594.6" x2="1234.9" y2="666.3" stroke="#000000" stroke-width="2.54" stroke-linecap="round"/>
  <line x1="-384.7" y1="-587.2" x2="1229.1" y2="673.7" stroke="#000000" stroke-width="2.54" stroke-linecap="round"/>
  <line x1="-390.1" y1="-580.3" x2="1223.7" y2="680.6" stroke="#000000" stroke-width="1.86" stroke-linecap="round"/>
  <line x1="-396.0" y1="-572.7" x2="1217.9" y2="688.1" stroke="#000000" stroke-width="2.80" stroke-linecap="round"/>
  <line x1="-401.6" y1="-565.6" x2="1212.3" y2="695.3" stroke="#000000" stroke-width="2.58" stroke-linecap="round"/>
  <line x1="-407.1" y1="-558.6" x2="1206.8" y2="702.3" stroke="#000000" stroke-width="2.50" stroke-linecap="round"/>
  <line x1="-412.2" y1="-552.0" x2="1201.6" y2="708.9" stroke="#000000" stroke-width="2.22" stroke-linecap="round"/>
  <line x1="-417.8" y1="-544.8" x2="1196.0" y2="716.1" stroke="#000000" stroke-width="1.62" stroke-linecap="round"/>
  <line x1="-423.2" y1="-538.0" x2="1190.7" y2="722.9" stroke="#000000" stroke-width="1.93" stroke-linecap="round"/>
  <line x1="-428.9" y1="-530.7" x2="1185.0" y2="730.2" stroke="#000000" stroke-width="2.44" stroke-linecap="round"/>
  <line x1="-434.9" y1="-523.0" x2="1179.0" y2="737.9" stroke="#000000" stroke-width="2.13" stroke-linecap="round"/>
  <line x1="-440.4" y1="-515.9" x2="1173.4" y2="745.0" stroke="#000000" stroke-width="2.80" stroke-linecap="round"/>
  <line x1="-446.0" y1="-508.8" x2="1167.9" y2="752.1" stroke="#000000" stroke-width="2.03" stroke-linecap="round"/>
  <line x1="-451.0" y1="-502.3" x2="1162.8" y2="758.5" stroke="#000000" stroke-width="1.86" stroke-linecap="round"/>
  <line x1="-456.5" y1="-495.3" x2="1157.3" y2="765.6" stroke="#000000" stroke-width="1.84" stroke-linecap="round"/>
  <line x1="-462.4" y1="-487.8" x2="1151.5" y2="773.1" stroke="#000000" stroke-width="2.69" stroke-linecap="round"/>
  <line x1="-468.0" y1="-480.5" x2="1145.8" y2="780.4" stroke="#000000" stroke-width="2.17" stroke-linecap="round"/>
  <line x1="-473.5" y1="-473.6" x2="1140.4" y2="787.3" stroke="#000000" stroke-width="2.57" stroke-linecap="round"/>
  <line x1="-478.6" y1="-467.0" x2="1135.2" y2="793.9" stroke="#000000" stroke-width="2.40" stroke-linecap="round"/>
  <line x1="-484.7" y1="-459.2" x2="1129.1" y2="801.7" stroke="#000000" stroke-width="2.55" stroke-linecap="round"/>
  <line x1="-490.1" y1="-452.2" x2="1123.7" y2="808.6" stroke="#000000" stroke-width="2.17" stroke-linecap="round"/>
  <line x1="-495.3" y1="-445.6" x2="1118.6" y2="815.2" stroke="#000000" stroke-width="2.56" stroke-linecap="round"/>
  <line x1="-500.9" y1="-438.4" x2="1112.9" y2="822.5" stroke="#000000" stroke-width="2.57" stroke-linecap="round"/>
  <line x1="-506.9" y1="-430.8" x2="1106.9" y2="830.1" stroke="#000000" stroke-width="2.07" stroke-linecap="round"/>
  <line x1="-512.1" y1="-424.2" x2="1101.8" y2="836.7" stroke="#000000" stroke-width="2.75" stroke-linecap="round"/>
  <line x1="-517.8" y1="-416.8" x2="1096.0" y2="844.1" stroke="#000000" stroke-width="1.79" stroke-linecap="round"/>
  <line x1="-523.0" y1="-410.2" x2="1090.9" y2="850.7" stroke="#000000" stroke-width="1.77" stroke-linecap="round"/>
  <line x1="-529.0" y1="-402.5" x2="1084.8" y2="858.4" stroke="#000000" stroke-width="2.58" stroke-linecap="round"/>
  <line x1="-534.1" y1="-396.0" x2="1079.8" y2="864.9" stroke="#000000" stroke-width="2.60" stroke-linecap="round"/>
  <line x1="-540.2" y1="-388.2" x2="1073.7" y2="872.7" stroke="#000000" stroke-width="2.39" stroke-linecap="round"/>
  <line x1="-545.3" y1="-381.7" x2="1068.6" y2="879.2" stroke="#000000" stroke-width="2.26" stroke-linecap="round"/>
  <line x1="-550.7" y1="-374.8" x2="1063.2" y2="886.1" stroke="#000000" stroke-width="1.60" stroke-linecap="round"/>
  <line x1="-556.8" y1="-366.9" x2="1057.1" y2="893.9" stroke="#000000" stroke-width="2.38" stroke-linecap="round"/>
  <line x1="-562.0" y1="-360.2" x2="1051.8" y2="900.6" stroke="#000000" stroke-width="2.73" stroke-linecap="round"/>
  <line x1="-567.5" y1="-353.2" x2="1046.3" y2="907.7" stroke="#000000" stroke-width="2.66" stroke-linecap="round"/>
  <line x1="-573.3" y1="-345.8" x2="1040.5" y2="915.1" stroke="#000000" stroke-width="1.84" stroke-linecap="round"/>
  <line x1="-578.5" y1="-339.2" x2="1035.4" y2="921.7" stroke="#000000" stroke-width="1.94" stroke-linecap="round"/>
  <line x1="-584.0" y1="-332.1" x2="1029.9" y2="928.8" stroke="#000000" stroke-width="2.31" stroke-linecap="round"/>
  <line x1="-589.5" y1="-325.0" x2="1024.3" y2="935.9" stroke="#000000" stroke-width="2.10" stroke-linecap="round"/>
  <line x1="-595.0" y1="-318.0" x2="1018.8" y2="942.9" stroke="#000000" stroke-width="2.71" stroke-linecap="round"/>
  <line x1="-600.7" y1="-310.7" x2="1013.2" y2="950.1" stroke="#000000" stroke-width="2.15" stroke-linecap="round"/>
  <line x1="-606.4" y1="-303.4" x2="1007.5" y2="957.4" stroke="#000000" stroke-width="2.70" stroke-linecap="round"/>
  <line x1="-611.8" y1="-296.5" x2="1002.0" y2="964.4" stroke="#000000" stroke-width="2.71" stroke-linecap="round"/>
  <line x1="-617.4" y1="-289.3" x2="996.4" y2="971.5" stroke="#000000" stroke-width="2.24" stroke-linecap="round"/>
  <line x1="-623.0" y1="-282.2" x2="990.9" y2="978.7" stroke="#000000" stroke-width="1.61" stroke-linecap="round"/>
  <line x1="-628.5" y1="-275.2" x2="985.4" y2="985.7" stroke="#000000" stroke-width="1.81" stroke-linecap="round"/>
  <line x1="-633.7" y1="-268.5" x2="980.1" y2="992.4" stroke="#000000" stroke-width="2.57" stroke-linecap="round"/>
  <line x1="-639.4" y1="-261.2" x2="974.5" y2="999.6" stroke="#000000" stroke-width="2.17" stroke-linecap="round"/>
  <line x1="-645.3" y1="-253.7" x2="968.6" y2="1007.2" stroke="#000000" stroke-width="2.27" stroke-linecap="round"/>
  <line x1="-650.5" y1="-246.9" x2="963.3" y2="1013.9" stroke="#000000" stroke-width="2.22" stroke-linecap="round"/>
  <line x1="-656.2" y1="-239.6" x2="957.6" y2="1021.2" stroke="#000000" stroke-width="2.55" stroke-linecap="round"/>
  <line x1="-661.5" y1="-232.9" x2="952.4" y2="1027.9" stroke="#000000" stroke-width="2.27" stroke-linecap="round"/>
  <line x1="-667.1" y1="-225.7" x2="946.7" y2="1035.2" stroke="#000000" stroke-width="1.93" stroke-linecap="round"/>
  <line x1="-673.0" y1="-218.2" x2="940.8" y2="1042.7" stroke="#000000" stroke-width="2.21" stroke-linecap="round"/>
  <line x1="-678.4" y1="-211.3" x2="935.4" y2="1049.6" stroke="#000000" stroke-width="2.52" stroke-linecap="round"/>
  <line x1="-684.2" y1="-203.9" x2="929.7" y2="1057.0" stroke="#000000" stroke-width="2.13" stroke-linecap="round"/>
  <line x1="-689.5" y1="-197.0" x2="924.3" y2="1063.8" stroke="#000000" stroke-width="2.21" stroke-linecap="round"/>
  <line x1="-695.0" y1="-190.0" x2="918.8" y2="1070.8" stroke="#000000" stroke-width="2.44" stroke-linecap="round"/>
  <line x1="-700.5" y1="-183.0" x2="913.3" y2="1077.9" stroke="#000000" stroke-width="2.24" stroke-linecap="round"/>
  <line x1="-706.1" y1="-175.9" x2="907.8" y2="1085.0" stroke="#000000" stroke-width="2.74" stroke-linecap="round"/>
  <line x1="-711.7" y1="-168.6" x2="902.1" y2="1092.3" stroke="#000000" stroke-width="2.66" stroke-linecap="round"/>
  <line x1="-717.5" y1="-161.3" x2="896.4" y2="1099.6" stroke="#000000" stroke-width="1.90" stroke-linecap="round"/>
  <line x1="-722.7" y1="-154.5" x2="891.1" y2="1106.3" stroke="#000000" stroke-width="2.75" stroke-linecap="round"/>
  <line x1="-728.5" y1="-147.2" x2="885.4" y2="1113.7" stroke="#000000" stroke-width="1.75" stroke-linecap="round"/>
  <line x1="-733.5" y1="-140.7" x2="880.3" y2="1120.1" stroke="#000000" stroke-width="2.13" stroke-linecap="round"/>
  <line x1="-739.0" y1="-133.7" x2="874.8" y2="1127.2" stroke="#000000" stroke-width="1.88" stroke-linecap="round"/>
  <line x1="-744.6" y1="-126.6" x2="869.3" y2="1134.3" stroke="#000000" stroke-width="2.41" stroke-linecap="round"/>
  <line x1="-750.6" y1="-118.9" x2="863.3" y2="1142.0" stroke="#000000" stroke-width="2.69" stroke-linecap="round"/>
  <line x1="-755.7" y1="-112.3" x2="858.1" y2="1148.5" stroke="#000000" stroke-width="2.47" stroke-linecap="round"/>
  <line x1="-761.6" y1="-104.8" x2="852.3" y2="1156.1" stroke="#000000" stroke-width="1.76" stroke-linecap="round"/>
  <line x1="-767.3" y1="-97.5" x2="846.6" y2="1163.4" stroke="#000000" stroke-width="2.78" stroke-linecap="round"/>
  <line x1="-772.4" y1="-91.0" x2="841.5" y2="1169.9" stroke="#000000" stroke-width="2.76" stroke-linecap="round"/>
  <line x1="-778.0" y1="-83.7" x2="835.8" y2="1177.1" stroke="#000000" stroke-width="2.18" stroke-linecap="round"/>
  <line x1="-784.0" y1="-76.1" x2="829.9" y2="1184.7" stroke="#000000" stroke-width="2.61" stroke-linecap="round"/>
  <line x1="-789.0" y1="-69.8" x2="824.9" y2="1191.1" stroke="#000000" stroke-width="2.12" stroke-linecap="round"/>
  <line x1="-794.7" y1="-62.4" x2="819.1" y2="1198.5" stroke="#000000" stroke-width="2.00" stroke-linecap="round"/>
  <line x1="-800.1" y1="-55.6" x2="813.8" y2="1205.3" stroke="#000000" stroke-width="1.98" stroke-linecap="round"/>
  <line x1="-806.0" y1="-48.0" x2="807.9" y2="1212.9" stroke="#000000" stroke-width="1.61" stroke-linecap="round"/>
  <line x1="-811.4" y1="-41.1" x2="802.5" y2="1219.8" stroke="#000000" stroke-width="2.13" stroke-linecap="round"/>
  <line x1="-816.6" y1="-34.4" x2="797.3" y2="1226.4" stroke="#000000" stroke-width="1.99" stroke-linecap="round"/>
  <line x1="-822.5" y1="-26.8" x2="791.3" y2="1234.1" stroke="#000000" stroke-width="2.22" stroke-linecap="round"/>
  <line x1="-827.7" y1="-20.2" x2="786.2" y2="1240.7" stroke="#000000" stroke-width="2.80" stroke-linecap="round"/>
  <line x1="-833.7" y1="-12.5" x2="780.1" y2="1248.4" stroke="#000000" stroke-width="2.78" stroke-linecap="round"/>
  <line x1="-838.8" y1="-6.0" x2="775.1" y2="1254.9" stroke="#000000" stroke-width="1.91" stroke-linecap="round"/>
  <line x1="-844.3" y1="1.0" x2="769.6" y2="1261.9" stroke="#000000" stroke-width="2.54" stroke-linecap="round"/>
  <line x1="-850.0" y1="8.3" x2="763.9" y2="1269.2" stroke="#000000" stroke-width="1.74" stroke-linecap="round"/>
  <line x1="-855.6" y1="15.6" x2="758.2" y2="1276.4" stroke="#000000" stroke-width="2.71" stroke-linecap="round"/>
  <line x1="-861.4" y1="23.0" x2="752.4" y2="1283.9" stroke="#000000" stroke-width="1.90" stroke-linecap="round"/>
  <line x1="-866.5" y1="29.5" x2="747.3" y2="1290.4" stroke="#000000" stroke-width="2.72" stroke-linecap="round"/>
  <line x1="-872.3" y1="37.0" x2="741.5" y2="1297.8" stroke="#000000" stroke-width="2.45" stroke-linecap="round"/>
  <line x1="-877.6" y1="43.6" x2="736.3" y2="1304.5" stroke="#000000" stroke-width="1.65" stroke-linecap="round"/>
  <line x1="-883.5" y1="51.3" x2="730.3" y2="1312.1" stroke="#000000" stroke-width="2.11" stroke-linecap="round"/>
  <line x1="-888.6" y1="57.8" x2="725.2" y2="1318.7" stroke="#000000" stroke-width="2.74" stroke-linecap="round"/>
  <line x1="-894.6" y1="65.4" x2="719.3" y2="1326.3" stroke="#000000" stroke-width="2.57" stroke-linecap="round"/>
  <line x1="-899.7" y1="72.0" x2="714.1" y2="1332.9" stroke="#000000" stroke-width="2.64" stroke-linecap="round"/>
  <line x1="-905.3" y1="79.1" x2="708.6" y2="1340.0" stroke="#000000" stroke-width="2.65" stroke-linecap="round"/>
  <line x1="-911.1" y1="86.5" x2="702.8" y2="1347.4" stroke="#000000" stroke-width="2.00" stroke-linecap="round"/>
  <line x1="-916.7" y1="93.7" x2="697.2" y2="1354.6" stroke="#000000" stroke-width="2.73" stroke-linecap="round"/>
  <line x1="-922.0" y1="100.5" x2="691.8" y2="1361.4" stroke="#000000" stroke-width="1.74" stroke-linecap="round"/>
  <line x1="-927.7" y1="107.8" x2="686.1" y2="1368.7" stroke="#000000" stroke-width="1.88" stroke-linecap="round"/>
  <line x1="-933.0" y1="114.6" x2="680.9" y2="1375.5" stroke="#000000" stroke-width="1.78" stroke-linecap="round"/>
  <line x1="-938.5" y1="121.6" x2="675.4" y2="1382.5" stroke="#000000" stroke-width="1.83" stroke-linecap="round"/>
  <line x1="-944.2" y1="128.9" x2="669.6" y2="1389.8" stroke="#000000" stroke-width="1.96" stroke-linecap="round"/>
  <line x1="-950.0" y1="136.4" x2="663.8" y2="1397.3" stroke="#000000" stroke-width="1.94" stroke-linecap="round"/>
  <line x1="-955.4" y1="143.3" x2="658.4" y2="1404.2" stroke="#000000" stroke-width="1.80" stroke-linecap="round"/>
  <line x1="-960.8" y1="150.2" x2="653.0" y2="1411.1" stroke="#000000" stroke-width="1.61" stroke-linecap="round"/>
  <line x1="-966.3" y1="157.3" x2="647.5" y2="1418.1" stroke="#000000" stroke-width="1.60" stroke-linecap="round"/>
  <line x1="-972.2" y1="164.8" x2="641.7" y2="1425.6" stroke="#000000" stroke-width="2.26" stroke-linecap="round"/>
  <line x1="-977.4" y1="171.4" x2="636.5" y2="1432.3" stroke="#000000" stroke-width="2.17" stroke-linecap="round"/>
  <line x1="-983.4" y1="179.1" x2="630.4" y2="1440.0" stroke="#000000" stroke-width="1.71" stroke-linecap="round"/>
  <line x1="-988.9" y1="186.1" x2="625.0" y2="1447.0" stroke="#000000" stroke-width="2.12" stroke-linecap="round"/>
  <line x1="-994.2" y1="192.9" x2="619.7" y2="1453.8" stroke="#000000" stroke-width="2.61" stroke-linecap="round"/>
  <line x1="-999.7" y1="199.9" x2="614.2" y2="1460.8" stroke="#000000" stroke-width="2.21" stroke-linecap="round"/>
  <line x1="-1005.4" y1="207.3" x2="608.4" y2="1468.2" stroke="#000000" stroke-width="2.79" stroke-linecap="round"/>
  <line x1="-1010.7" y1="214.1" x2="603.1" y2="1474.9" stroke="#000000" stroke-width="2.61" stroke-linecap="round"/>
  <line x1="-1016.5" y1="221.5" x2="597.3" y2="1482.4" stroke="#000000" stroke-width="2.37" stroke-linecap="round"/>
  <line x1="-1021.8" y1="228.3" x2="592.0" y2="1489.2" stroke="#000000" stroke-width="2.01" stroke-linecap="round"/>
  <line x1="-1027.1" y1="235.1" x2="586.7" y2="1496.0" stroke="#000000" stroke-width="1.74" stroke-linecap="round"/>
  <line x1="-1032.7" y1="242.2" x2="581.2" y2="1503.1" stroke="#000000" stroke-width="2.50" stroke-linecap="round"/>
  <line x1="-1038.4" y1="249.5" x2="575.5" y2="1510.3" stroke="#000000" stroke-width="1.79" stroke-linecap="round"/>
  <line x1="-1043.8" y1="256.4" x2="570.1" y2="1517.3" stroke="#000000" stroke-width="2.62" stroke-linecap="round"/>
  <line x1="-1049.9" y1="264.2" x2="564.0" y2="1525.0" stroke="#000000" stroke-width="2.41" stroke-linecap="round"/>
  <line x1="-1055.0" y1="270.8" x2="558.8" y2="1531.6" stroke="#000000" stroke-width="1.88" stroke-linecap="round"/>
  <line x1="-1060.6" y1="277.9" x2="553.3" y2="1538.7" stroke="#000000" stroke-width="2.15" stroke-linecap="round"/>
  <line x1="-1066.0" y1="284.8" x2="547.8" y2="1545.7" stroke="#000000" stroke-width="2.13" stroke-linecap="round"/>
  <line x1="-1071.6" y1="292.0" x2="542.2" y2="1552.9" stroke="#000000" stroke-width="2.77" stroke-linecap="round"/>
  <line x1="-1077.6" y1="299.7" x2="536.2" y2="1560.6" stroke="#000000" stroke-width="2.26" stroke-linecap="round"/>
  <line x1="-1082.7" y1="306.2" x2="531.2" y2="1567.1" stroke="#000000" stroke-width="2.77" stroke-linecap="round"/>
  <line x1="-1088.3" y1="313.3" x2="525.6" y2="1574.2" stroke="#000000" stroke-width="2.02" stroke-linecap="round"/>
  <line x1="-1093.6" y1="320.2" x2="520.2" y2="1581.0" stroke="#000000" stroke-width="2.05" stroke-linecap="round"/>
  <line x1="-1099.5" y1="327.7" x2="514.4" y2="1588.5" stroke="#000000" stroke-width="2.20" stroke-linecap="round"/>
  <line x1="-1104.8" y1="334.5" x2="509.0" y2="1595.4" stroke="#000000" stroke-width="2.21" stroke-linecap="round"/>
  <line x1="-1110.2" y1="341.4" x2="503.6" y2="1602.3" stroke="#000000" stroke-width="1.91" stroke-linecap="round"/>
  <line x1="-1115.8" y1="348.6" x2="498.0" y2="1609.5" stroke="#000000" stroke-width="2.08" stroke-linecap="round"/>
  <line x1="-1121.3" y1="355.7" x2="492.5" y2="1616.5" stroke="#000000" stroke-width="1.61" stroke-linecap="round"/>
  <line x1="-1127.0" y1="363.0" x2="486.8" y2="1623.8" stroke="#000000" stroke-width="1.87" stroke-linecap="round"/>
  <line x1="-1132.8" y1="370.3" x2="481.1" y2="1631.2" stroke="#000000" stroke-width="2.24" stroke-linecap="round"/>
  <line x1="-1138.4" y1="377.5" x2="475.4" y2="1638.4" stroke="#000000" stroke-width="2.39" stroke-linecap="round"/>
  <line x1="-1144.0" y1="384.6" x2="469.9" y2="1645.5" stroke="#000000" stroke-width="2.67" stroke-linecap="round"/>
  <line x1="-1149.3" y1="391.4" x2="464.6" y2="1652.3" stroke="#000000" stroke-width="1.99" stroke-linecap="round"/>
  <line x1="-1155.2" y1="399.0" x2="458.6" y2="1659.9" stroke="#000000" stroke-width="1.77" stroke-linecap="round"/>
  <line x1="-1160.6" y1="405.9" x2="453.3" y2="1666.8" stroke="#000000" stroke-width="2.38" stroke-linecap="round"/>
  <line x1="-1165.7" y1="412.4" x2="448.2" y2="1673.3" stroke="#000000" stroke-width="2.61" stroke-linecap="round"/>
  <line x1="-1171.8" y1="420.2" x2="442.1" y2="1681.1" stroke="#000000" stroke-width="2.36" stroke-linecap="round"/>
  <line x1="-1177.2" y1="427.2" x2="436.6" y2="1688.0" stroke="#000000" stroke-width="2.58" stroke-linecap="round"/>
  <line x1="-1182.3" y1="433.7" x2="431.5" y2="1694.6" stroke="#000000" stroke-width="2.23" stroke-linecap="round"/>
  <line x1="-1188.1" y1="441.2" x2="425.7" y2="1702.0" stroke="#000000" stroke-width="2.61" stroke-linecap="round"/>
  <line x1="-1193.9" y1="448.5" x2="420.0" y2="1709.4" stroke="#000000" stroke-width="2.60" stroke-linecap="round"/>
  <line x1="-1199.3" y1="455.4" x2="414.6" y2="1716.3" stroke="#000000" stroke-width="2.68" stroke-linecap="round"/>
  <line x1="-1204.9" y1="462.6" x2="409.0" y2="1723.5" stroke="#000000" stroke-width="2.44" stroke-linecap="round"/>
  <line x1="-1210.1" y1="469.3" x2="403.7" y2="1730.2" stroke="#000000" stroke-width="1.62" stroke-linecap="round"/>
  <line x1="-1215.6" y1="476.3" x2="398.3" y2="1737.2" stroke="#000000" stroke-width="2.03" stroke-linecap="round"/>
  <line x1="-1221.1" y1="483.4" x2="392.7" y2="1744.2" stroke="#000000" stroke-width="2.61" stroke-linecap="round"/>
  <line x1="-1227.0" y1="490.8" x2="386.9" y2="1751.7" stroke="#000000" stroke-width="2.36" stroke-linecap="round"/>
  <line x1="-1232.5" y1="498.0" x2="381.3" y2="1758.9" stroke="#000000" stroke-width="2.42" stroke-linecap="round"/>
  <line x1="-1238.0" y1="505.0" x2="375.9" y2="1765.8" stroke="#000000" stroke-width="1.59" stroke-linecap="round"/>
  <line x1="-1243.7" y1="512.3" x2="370.1" y2="1773.2" stroke="#000000" stroke-width="2.51" stroke-linecap="round"/>
  <line x1="-1249.1" y1="519.2" x2="364.8" y2="1780.0" stroke="#000000" stroke-width="2.24" stroke-linecap="round"/>
  <line x1="-1254.7" y1="526.4" x2="359.1" y2="1787.3" stroke="#000000" stroke-width="1.67" stroke-linecap="round"/>
  <line x1="-1260.3" y1="533.6" x2="353.5" y2="1794.4" stroke="#000000" stroke-width="1.89" stroke-linecap="round"/>
  <line x1="-1265.4" y1="540.1" x2="348.4" y2="1800.9" stroke="#000000" stroke-width="1.91" stroke-linecap="round"/>
  <line x1="-1271.4" y1="547.7" x2="342.4" y2="1808.6" stroke="#000000" stroke-width="1.84" stroke-linecap="round"/>
  <line x1="-1277.0" y1="554.8" x2="336.9" y2="1815.7" stroke="#000000" stroke-width="2.79" stroke-linecap="round"/>
  <line x1="-1282.3" y1="561.7" x2="331.5" y2="1822.6" stroke="#000000" stroke-width="2.06" stroke-linecap="round"/>
  <line x1="-1287.9" y1="568.8" x2="326.0" y2="1829.7" stroke="#000000" stroke-width="2.43" stroke-linecap="round"/>
  <line x1="-1293.6" y1="576.1" x2="320.3" y2="1837.0" stroke="#000000" stroke-width="2.34" stroke-linecap="round"/>
  <line x1="-1299.0" y1="583.1" x2="314.8" y2="1844.0" stroke="#000000" stroke-width="1.68" stroke-linecap="round"/>
  <line x1="-1304.3" y1="589.8" x2="309.6" y2="1850.7" stroke="#000000" stroke-width="1.90" stroke-linecap="round"/>
  <line x1="-1310.2" y1="597.4" x2="303.6" y2="1858.3" stroke="#000000" stroke-width="1.96" stroke-linecap="round"/>
  <line x1="-1315.6" y1="604.3" x2="298.2" y2="1865.2" stroke="#000000" stroke-width="1.60" stroke-linecap="round"/>
  <line x1="-1320.8" y1="611.0" x2="293.0" y2="1871.9" stroke="#000000" stroke-width="1.92" stroke-linecap="round"/>
  <line x1="-1326.8" y1="618.6" x2="287.1" y2="1879.5" stroke="#000000" stroke-width="2.44" stroke-linecap="round"/>
  <line x1="-1332.3" y1="625.7" x2="281.5" y2="1886.6" stroke="#000000" stroke-width="1.94" stroke-linecap="round"/>
  <line x1="-1337.7" y1="632.7" x2="276.1" y2="1893.5" stroke="#000000" stroke-width="2.16" stroke-linecap="round"/>
  <line x1="-1343.3" y1="639.7" x2="270.6" y2="1900.6" stroke="#000000" stroke-width="1.73" stroke-linecap="round"/>
  <line x1="-1349.1" y1="647.2" x2="264.8" y2="1908.0" stroke="#000000" stroke-width="1.83" stroke-linecap="round"/>
  <line x1="-1354.7" y1="654.3" x2="259.2" y2="1915.2" stroke="#000000" stroke-width="2.74" stroke-linecap="round"/>
  <line x1="-1359.6" y1="660.6" x2="254.3" y2="1921.5" stroke="#000000" stroke-width="2.15" stroke-linecap="round"/>
  <line x1="-1365.7" y1="668.4" x2="248.2" y2="1929.3" stroke="#000000" stroke-width="2.78" stroke-linecap="round"/>
  <line x1="-1370.9" y1="675.1" x2="242.9" y2="1936.0" stroke="#000000" stroke-width="1.91" stroke-linecap="round"/>
  <line x1="-1376.3" y1="682.0" x2="237.5" y2="1942.9" stroke="#000000" stroke-width="2.75" stroke-linecap="round"/>
  <line x1="-1381.9" y1="689.1" x2="232.0" y2="1950.0" stroke="#000000" stroke-width="2.30" stroke-linecap="round"/>
  <line x1="-1387.4" y1="696.2" x2="226.5" y2="1957.0" stroke="#000000" stroke-width="2.23" stroke-linecap="round"/>
  <line x1="-1393.5" y1="704.0" x2="220.4" y2="1964.8" stroke="#000000" stroke-width="1.75" stroke-linecap="round"/>
  <line x1="-1398.9" y1="710.9" x2="214.9" y2="1971.8" stroke="#000000" stroke-width="2.21" stroke-linecap="round"/>
  <line x1="-1404.5" y1="718.1" x2="209.4" y2="1979.0" stroke="#000000" stroke-width="2.45" stroke-linecap="round"/>
  <line x1="-1409.6" y1="724.6" x2="204.3" y2="1985.5" stroke="#000000" stroke-width="2.69" stroke-linecap="round"/>
  <line x1="-1415.3" y1="731.9" x2="198.5" y2="1992.8" stroke="#000000" stroke-width="1.61" stroke-linecap="round"/>
  <line x1="-1420.5" y1="738.6" x2="193.3" y2="1999.5" stroke="#000000" stroke-width="2.19" stroke-linecap="round"/>
  <line x1="-1426.4" y1="746.1" x2="187.5" y2="2006.9" stroke="#000000" stroke-width="1.96" stroke-linecap="round"/>
  <line x1="-1431.7" y1="752.9" x2="182.2" y2="2013.8" stroke="#000000" stroke-width="2.01" stroke-linecap="round"/>
  <line x1="-1437.4" y1="760.1" x2="176.5" y2="2021.0" stroke="#000000" stroke-width="2.62" stroke-linecap="round"/>
  <line x1="-1442.7" y1="767.0" x2="171.2" y2="2027.8" stroke="#000000" stroke-width="2.51" stroke-linecap="round"/>
  <line x1="-1448.8" y1="774.8" x2="165.1" y2="2035.7" stroke="#000000" stroke-width="1.73" stroke-linecap="round"/>
  <line x1="-1454.4" y1="781.9" x2="159.5" y2="2042.8" stroke="#000000" stroke-width="2.46" stroke-linecap="round"/>
  <line x1="-1459.9" y1="789.0" x2="153.9" y2="2049.9" stroke="#000000" stroke-width="1.94" stroke-linecap="round"/>
  <line x1="-1465.1" y1="795.6" x2="148.8" y2="2056.5" stroke="#000000" stroke-width="2.07" stroke-linecap="round"/>
  <line x1="-1471.1" y1="803.3" x2="142.8" y2="2064.2" stroke="#000000" stroke-width="2.31" stroke-linecap="round"/>
  <line x1="-1476.2" y1="809.8" x2="137.7" y2="2070.7" stroke="#000000" stroke-width="2.11" stroke-linecap="round"/>
  <line x1="-1481.7" y1="816.8" x2="132.2" y2="2077.7" stroke="#000000" stroke-width="1.64" stroke-linecap="round"/>
  <line x1="-1487.1" y1="823.8" x2="126.8" y2="2084.7" stroke="#000000" stroke-width="2.61" stroke-linecap="round"/>
  <line x1="-1492.7" y1="831.0" x2="121.1" y2="2091.9" stroke="#000000" stroke-width="2.74" stroke-linecap="round"/>
  <line x1="-1498.3" y1="838.1" x2="115.6" y2="2099.0" stroke="#000000" stroke-width="1.91" stroke-linecap="round"/>
  <line x1="-1504.0" y1="845.4" x2="109.9" y2="2106.3" stroke="#000000" stroke-width="1.82" stroke-linecap="round"/>
  <line x1="-1509.4" y1="852.4" x2="104.4" y2="2113.3" stroke="#000000" stroke-width="2.76" stroke-linecap="round"/>
  <line x1="-1515.3" y1="859.9" x2="98.5" y2="2120.8" stroke="#000000" stroke-width="2.58" stroke-linecap="round"/>
  <line x1="-1520.7" y1="866.8" x2="93.2" y2="2127.7" stroke="#000000" stroke-width="2.71" stroke-linecap="round"/>
  <line x1="-1526.4" y1="874.2" x2="87.4" y2="2135.0" stroke="#000000" stroke-width="2.26" stroke-linecap="round"/>
  <line x1="-1531.8" y1="881.1" x2="82.0" y2="2141.9" stroke="#000000" stroke-width="1.64" stroke-linecap="round"/>
  <line x1="-1537.4" y1="888.2" x2="76.5" y2="2149.0" stroke="#000000" stroke-width="2.14" stroke-linecap="round"/>
  <line x1="-1542.9" y1="895.3" x2="70.9" y2="2156.1" stroke="#000000" stroke-width="2.38" stroke-linecap="round"/>
  <line x1="-1548.1" y1="902.0" x2="65.7" y2="2162.8" stroke="#000000" stroke-width="1.64" stroke-linecap="round"/>
  <line x1="-1554.1" y1="909.6" x2="59.7" y2="2170.5" stroke="#000000" stroke-width="1.74" stroke-linecap="round"/>
  <line x1="-1559.4" y1="916.3" x2="54.5" y2="2177.2" stroke="#000000" stroke-width="2.01" stroke-linecap="round"/>
  <line x1="-1564.8" y1="923.2" x2="49.1" y2="2184.1" stroke="#000000" stroke-width="2.49" stroke-linecap="round"/>
  <line x1="-1570.8" y1="930.9" x2="43.1" y2="2191.8" stroke="#000000" stroke-width="1.90" stroke-linecap="round"/>
  <line x1="-1576.1" y1="937.7" x2="37.7" y2="2198.6" stroke="#000000" stroke-width="1.95" stroke-linecap="round"/>
  <line x1="-1581.6" y1="944.7" x2="32.3" y2="2205.6" stroke="#000000" stroke-width="2.07" stroke-linecap="round"/>
  <line x1="-1586.9" y1="951.5" x2="27.0" y2="2212.4" stroke="#000000" stroke-width="1.78" stroke-linecap="round"/>
  <line x1="-1592.4" y1="958.6" x2="21.4" y2="2219.5" stroke="#000000" stroke-width="2.70" stroke-linecap="round"/>
  <line x1="-1598.2" y1="966.0" x2="15.7" y2="2226.8" stroke="#000000" stroke-width="1.86" stroke-linecap="round"/>
  <line x1="-1604.0" y1="973.4" x2="9.9" y2="2234.3" stroke="#000000" stroke-width="2.81" stroke-linecap="round"/>
  <line x1="-1609.2" y1="980.1" x2="4.6" y2="2241.0" stroke="#000000" stroke-width="1.76" stroke-linecap="round"/>
  <line x1="-1614.6" y1="987.0" x2="-0.7" y2="2247.9" stroke="#000000" stroke-width="1.70" stroke-linecap="round"/>
  <line x1="-1620.2" y1="994.2" x2="-6.4" y2="2255.1" stroke="#000000" stroke-width="1.70" stroke-linecap="round"/>
  <line x1="-1625.7" y1="1001.2" x2="-11.8" y2="2262.1" stroke="#000000" stroke-width="1.90" stroke-linecap="round"/>
  <line x1="-1631.5" y1="1008.6" x2="-17.6" y2="2269.5" stroke="#000000" stroke-width="2.68" stroke-linecap="round"/>
  <line x1="-1637.1" y1="1015.8" x2="-23.3" y2="2276.7" stroke="#000000" stroke-width="2.09" stroke-linecap="round"/>
  <line x1="-1642.4" y1="1022.6" x2="-28.6" y2="2283.5" stroke="#000000" stroke-width="2.23" stroke-linecap="round"/>
  <line x1="-1647.9" y1="1029.7" x2="-34.1" y2="2290.6" stroke="#000000" stroke-width="2.00" stroke-linecap="round"/>
  <line x1="-1653.3" y1="1036.5" x2="-39.4" y2="2297.4" stroke="#000000" stroke-width="1.93" stroke-linecap="round"/>
  <line x1="-1659.4" y1="1044.4" x2="-45.6" y2="2305.3" stroke="#000000" stroke-width="1.74" stroke-linecap="round"/>
  <line x1="-1664.7" y1="1051.1" x2="-50.8" y2="2312.0" stroke="#000000" stroke-width="2.36" stroke-linecap="round"/>
  <line x1="-1670.4" y1="1058.5" x2="-56.6" y2="2319.4" stroke="#000000" stroke-width="1.85" stroke-linecap="round"/>
  <line x1="-1675.6" y1="1065.1" x2="-61.7" y2="2325.9" stroke="#000000" stroke-width="1.89" stroke-linecap="round"/>
  <line x1="-1681.2" y1="1072.3" x2="-67.4" y2="2333.1" stroke="#000000" stroke-width="2.13" stroke-linecap="round"/>
  <line x1="-1687.1" y1="1079.8" x2="-73.3" y2="2340.7" stroke="#000000" stroke-width="2.63" stroke-linecap="round"/>
  <line x1="-1692.6" y1="1086.9" x2="-78.8" y2="2347.7" stroke="#000000" stroke-width="1.61" stroke-linecap="round"/>
  <line x1="-1697.6" y1="1093.2" x2="-83.7" y2="2354.1" stroke="#000000" stroke-width="2.46" stroke-linecap="round"/>
  <line x1="-1703.7" y1="1101.1" x2="-89.9" y2="2361.9" stroke="#000000" stroke-width="2.17" stroke-linecap="round"/>
  <line x1="-1709.0" y1="1107.9" x2="-95.2" y2="2368.8" stroke="#000000" stroke-width="1.58" stroke-linecap="round"/>
  <line x1="-1714.4" y1="1114.8" x2="-100.6" y2="2375.7" stroke="#000000" stroke-width="2.73" stroke-linecap="round"/>
  <line x1="-1720.3" y1="1122.3" x2="-106.4" y2="2383.2" stroke="#000000" stroke-width="2.64" stroke-linecap="round"/>
  <line x1="-1725.9" y1="1129.5" x2="-112.1" y2="2390.4" stroke="#000000" stroke-width="1.89" stroke-linecap="round"/>
  <line x1="-1730.9" y1="1135.8" x2="-117.0" y2="2396.7" stroke="#000000" stroke-width="1.77" stroke-linecap="round"/>
  <line x1="-1736.7" y1="1143.3" x2="-122.9" y2="2404.2" stroke="#000000" stroke-width="2.42" stroke-linecap="round"/>
  <line x1="-1742.5" y1="1150.7" x2="-128.7" y2="2411.6" stroke="#000000" stroke-width="2.47" stroke-linecap="round"/>
  <line x1="-1747.9" y1="1157.6" x2="-134.0" y2="2418.5" stroke="#000000" stroke-width="2.53" stroke-linecap="round"/>
  <line x1="-1753.3" y1="1164.5" x2="-139.4" y2="2425.4" stroke="#000000" stroke-width="2.26" stroke-linecap="round"/>
  <line x1="-1758.5" y1="1171.2" x2="-144.7" y2="2432.1" stroke="#000000" stroke-width="2.55" stroke-linecap="round"/>
  <line x1="-1764.2" y1="1178.5" x2="-150.4" y2="2439.4" stroke="#000000" stroke-width="2.72" stroke-linecap="round"/>
  <line x1="-1770.0" y1="1186.0" x2="-156.2" y2="2446.8" stroke="#000000" stroke-width="1.96" stroke-linecap="round"/>
  <line x1="-1775.2" y1="1192.6" x2="-161.4" y2="2453.5" stroke="#000000" stroke-width="1.89" stroke-linecap="round"/>
  <line x1="-1781.1" y1="1200.1" x2="-167.3" y2="2461.0" stroke="#000000" stroke-width="2.44" stroke-linecap="round"/>
  <line x1="-1786.3" y1="1206.8" x2="-172.4" y2="2467.6" stroke="#000000" stroke-width="1.67" stroke-linecap="round"/>
  <line x1="-1792.1" y1="1214.2" x2="-178.3" y2="2475.1" stroke="#000000" stroke-width="2.30" stroke-linecap="round"/>
  <line x1="-1797.6" y1="1221.2" x2="-183.7" y2="2482.1" stroke="#000000" stroke-width="1.86" stroke-linecap="round"/>
</svg>
